<?xml version="1.0" encoding="utf-8"?>
<svg xmlns="http://www.w3.org/2000/svg" width="654.04004" height="501.00456" viewBox="0 0 654.04004 501.00456" data-src="https://cdn.undraw.co/illustrations/trip_rh66.svg" role="img" artist="Katerina Limpitsouni" source="https://undraw.co/">
  <circle cx="320.3153" cy="127.10046" r="68" style="fill: rgb(46, 183, 222);"/>
  <path d="M495.3153,431.10046c0,38.10765,4,66-37.5,69-44.56313,3.22143-37.5-30.89235-37.5-69s-6-76,37.5-69c20.44762,3.29042,37.5,30.89235,37.5,69Z" style="fill: rgb(40, 39, 52);"/>
  <ellipse cx="432.3153" cy="431.10046" rx="6" ry="48" fill="#e6e6e6"/>
  <path d="M194.95337,369.73401c0,33.62932,3.52993,58.24382-33.09308,60.89127-39.32616,2.84286-33.09308-27.26195-33.09308-60.89127s-5.29489-67.06864,33.09308-60.89127c18.04466,2.90374,33.09308,27.26195,33.09308,60.89127Z" style="fill: rgb(40, 39, 52);"/>
  <ellipse cx="139.35699" cy="369.73401" rx="5.29489" ry="42.35914" fill="#e6e6e6"/>
  <path d="M251.8153,430.60046c0,38.10765,4,66-37.5,69-44.56313,3.22143-37.5-30.89235-37.5-69s-6-76,37.5-69c20.44762,3.29042,37.5,30.89235,37.5,69Z" style="fill: rgb(40, 39, 52);"/>
  <ellipse cx="188.8153" cy="430.60046" rx="6" ry="48" fill="#e6e6e6"/>
  <path d="M133.3153,289.10046v23.65354l-6.5,10.84646,2,38,1.61812,.99996-1.11812-38.49996c11.39322-4.24158,15.1188,3.57135,14,19l-2,26,32,20,4-41,15-7,16.5,69.5H485.26378c11.39576,0,20.50201-9.48262,20.04074-20.86904l-3.48923-86.13096-9.41339-9.41339-8.7202-100.86462c-2.17464-25.15363-23.50321-44.29878-48.74481-43.75478l-172.93405,3.72703c-9.38179,.20219-18.65063,2.091-27.36343,5.57612l-41.82413,16.72965-26.99606,26.99606-4.00394,65.00394-10.20744-.8876c-7.34262-.63849-14.0392,4.21417-15.71879,11.39057l-2.57377,10.99703Z" style="fill: rgb(51, 49, 49);"/>
  <circle cx="222.8153" cy="372.60046" r="10" style="fill: rgb(40, 39, 52);"/>
  <circle cx="245.8153" cy="372.60046" r="10" style="fill: rgb(40, 39, 52);"/>
  <circle cx="469.8153" cy="372.60046" r="10" style="fill: rgb(40, 39, 52);"/>
  <circle cx="492.8153" cy="372.60046" r="10" style="fill: rgb(40, 39, 52);"/>
  <path d="M477.21031,278.67174H242.11608c-1.79736,0-3.47021-.71582-4.71045-2.0166s-1.87695-3.00586-1.79199-4.80078l3.43457-72.625c.1626-3.43359,2.98242-6.1582,6.41895-6.20215l221.98438-2.85742c3.27783-.03125,6.12012,2.39941,6.54102,5.68164l9.6748,75.48242c.23779,1.85449-.33447,3.72363-1.56982,5.12793-1.23584,1.4043-3.01709,2.20996-4.88721,2.20996Z" style="fill: rgb(87, 85, 85);"/>
  <path d="M209.29186,275.10046h-15.25391c-1.80957,0-3.55225-.76172-4.78027-2.09082-1.22852-1.3291-1.85156-3.12598-1.70947-4.93066l4.39062-55.7207c.24072-3.05957,2.53076-5.5,5.56885-5.93359l15.7627-2.25195c1.97363-.28027,3.93896,.3418,5.38916,1.71094,1.45068,1.37012,2.18604,3.29492,2.01807,5.28223l-4.89893,57.97266c-.28711,3.39844-3.07617,5.96191-6.48682,5.96191Z" style="fill: rgb(87, 85, 85);"/>
  <path d="M174.21276,273.68444c-.15771,0-.31641-.00586-.4751-.0166l-1.79102-.12793c-1.76904-.12695-3.37305-.94336-4.51562-2.2998-1.14258-1.35742-1.67432-3.07617-1.49805-4.8418l4.92725-49.27344c.29199-2.91699,2.51514-5.29102,5.40771-5.77344,1.97119-.33105,3.95166,.25098,5.43359,1.59082,1.48242,1.33789,2.25977,3.24902,2.1333,5.24219l-3.13672,49.40234c-.11084,1.74512-.89697,3.33984-2.21436,4.49023-1.19678,1.0459-2.69824,1.60742-4.271,1.60742Z" style="fill: rgb(87, 85, 85);"/>
  <path d="M149.40941,374.21435l-2.59412-56.6139s-6-8-10-6-9.94094,13.12205-9.94094,13.12205c0,0,11.59412-.75984,11.26753,11.55906-.32659,12.3189,1.98641,32.24811,1.98641,32.24811l9.28112,5.68469Z" style="fill: rgb(87, 85, 85);"/>
  <path d="M173.55899,389.00597l1.25631-42.23622,12.72047-15.02362s17-3.67323,16.63976,15.59055,5.13976,63.76378,5.13976,63.76378l-12.43096-7.80772s-3.06904-47.69228-12.06904-52.69228-6-1-6-1l-5.25631,39.40551Z" style="fill: rgb(87, 85, 85);"/>
  <path d="M160.31139,280.73229l-9.85571-5.63184h1.07617c1.53723,0,2.78345-1.24622,2.78345-2.78351v-24.43304c0-1.53729-1.24622-2.78345-2.78345-2.78345h-10.43311c-1.53723,0-2.78345,1.24615-2.78345,2.78345v24.43304c0,1.53729,1.24622,2.78351,2.78345,2.78351h5.32617l12.89429,7.36816,.99219-1.73633Z" style="fill: rgb(40, 39, 52);"/>
  <rect x="161.3153" y="316.10046" width="15" height="7" rx="3.5" ry="3.5" transform="translate(94.90051 -34.20692) rotate(16.04325)" style="fill: rgb(40, 39, 52);"/>
  <rect x="450.30371" y="245.63749" width="39.90507" height="7" rx="3.5" ry="3.5" transform="translate(11.18191 -20.04865) rotate(2.47172)" style="fill: rgb(40, 39, 52);"/>
  <rect x="481.30371" y="311.63749" width="39.90507" height="7" rx="3.5" ry="3.5" transform="translate(14.05709 -21.32416) rotate(2.47172)" style="fill: rgb(40, 39, 52);"/>
  <circle cx="383.8153" cy="312.60046" r="76" style="fill: rgb(40, 39, 52);"/>
  <circle cx="383.8153" cy="312.60046" r="45" style="fill: rgb(87, 85, 85);"/>
  <g>
    <path id="b-70" d="M484.50669,161.66719c.3825,4.43634,2.98158,7.835,5.80485,7.59112s4.80114-4.03757,4.41792-8.47544c-.12877-1.77485-.6807-3.49305-1.60964-5.01085l-1.85803-18.77649-8.79267,1.05973,2.7652,18.39779c-.65548,1.65501-.90499,3.44295-.72762,5.21416Z" fill="#ffb6b6"/>
    <path d="M459.05844,52.97458s9.70152-2.73271,13.43093,1.89412,17.63992,50.06358,17.63992,50.06358l4.31904,48.90139-13.77279-4.16778-5.36024-38.56543-9-20-7.25685-38.12588Z" fill="#7c7b86"/>
  </g>
  <g>
    <rect x="426.32342" y="23.55787" width="29.56796" height="28.03858" fill="#2f2e41"/>
    <circle cx="440.79455" cy="23.42618" r="14.41669" fill="#ffb6b6"/>
    <path d="M433.97031,.10742c-9.2141,1.42614-8.77488,4.84994-11.72522,6.6273-5.19787,3.13132-7.2487,12.17365-4.50358,18.14056,.73345,1.59428,2.27988,3.76918,1.52938,6.11751-.57613,1.80269-2.23706,2.86615-2.54896,3.05875-2.55294,1.5763-.88542-.29896-2.03917,1.01958-1.27349,1.45539,.69935,3.51117-.50979,6.11751-1.07186,2.31062-3.28154,2.11559-3.56855,3.56855-.49423,2.50198,5.17833,7.53269,11.21543,7.13709,5.37522-.35222,9.36831-4.89655,10.70564-9.17626,.89575-2.86684,1.28195-7.79804-1.01958-10.19585-.32285-.33629-1.20528-1.1507-2.03917-2.54896-.65989-1.10652-1.52863-2.56309-1.01958-3.56855,.54228-1.07117,2.07974-.50737,3.05875-1.52938,1.32775-1.386-.24979-3.72767,0-6.11751,.42304-4.04673,6.15684-8.91384,12.23502-8.15668,6.89527,.85891,9.42444,8.35687,9.68606,9.17626,.54228,1.69827,.53145,3.34128,.50979,6.6273-.03099,4.7157-.05053,7.67134-1.52938,10.70564-2.12704,4.36423-4.83693,3.89271-5.60772,7.13709-1.20167,5.05847,4.45135,10.13878,5.09792,10.70564,4.79374,4.2023,12.03401,5.46583,13.2546,3.56855,1.09986-1.70972-3.72873-4.36927-3.56855-9.68606,.13877-4.60749,3.8675-6.01203,3.05875-9.17626-.89015-3.4831-5.6402-2.68854-7.64689-6.6273-1.87301-3.67645,1.57879-5.71625,1.01958-13.2546-.11836-1.59466-.61907-6.17134-3.56855-10.70564-1.29937-1.9976-2.6209-4.02924-5.09792-5.09792-2.77299-1.19638-10.5043-4.62073-15.37832-3.86637Z" style="fill: rgb(34, 34, 41);"/>
    <path d="M427.8528,12.85223c.37401,3.15683,5.11441,4.70388,7.13709,5.09792,.85667,.1669,3.75157,.73084,6.6273-.50979,1.0629-.45858,1.45016-.87328,2.54896-1.01958,1.48762-.19802,2.23712,.36778,4.58813,1.01958,2.6143,.7248,3.92152,1.08723,4.58813,.50979,1.08978-.94391,.25259-4.03185-1.01958-6.11751-2.35231-3.85649-6.65823-5.05069-8.66647-5.60772-2.29444-.63637-6.95053-1.92778-11.21543,.50979-.57022,.3259-4.96811,2.91015-4.58813,6.11751Z" style="fill: rgb(34, 34, 41);"/>
  </g>
  <g>
    <polygon points="498.02839 296.49835 505.38656 296.672 509.48813 263.61447 498.62931 263.35751 498.02839 296.49835" fill="#ffb6b6"/>
    <path d="M523.27335,311.84973h0c0,1.24303-.88213,2.25073-1.97031,2.25073h-14.60536s-1.43728-5.77751-7.29733-8.2639l-.40445,8.2639h-7.53439l.91287-13.28797s-2.01549-7.10911,2.17025-10.74308c4.18578-3.63397,.79546-3.1281,.79546-3.1281l1.64661-8.22425,11.38528,1.33884,.08371,12.91015,5.52519,12.81452,8.10412,4.0033c.72131,.3563,1.18824,1.16816,1.18824,2.06584l.00009,.00002Z" style="fill: rgb(34, 34, 41);"/>
  </g>
  <g>
    <polygon points="464.57426 231.75097 471.76967 230.20209 468.0408 197.10046 457.42203 199.38552 464.57426 231.75097" fill="#ffb6b6"/>
    <path d="M492.7054,240.78488h0c.29018,1.20869-.33233,2.39447-1.39044,2.6485l-14.20181,3.40955s-2.7463-5.28235-9.02487-6.33204l1.53589,8.12998-7.32622,1.75887-2.21436-13.13393s-3.61938-6.44218-.39763-10.95289c3.2218-4.51072,.04324-3.22736,.04324-3.22736l-.31879-8.38141,11.38325-1.35599,3.09521,12.5339,8.36401,11.17063,8.81476,2.00083c.78455,.17807,1.42811,.85849,1.63767,1.73137h.00009Z" style="fill: rgb(34, 34, 41);"/>
  </g>
  <polygon points="450.8153 39.60046 432.8153 40.60046 427.8153 50.60046 408.8153 60.60046 411.8153 109.91148 404.96023 134.71359 405.8153 141.60046 472.8153 139.60046 468.8153 65.60046 469.8153 53.60046 456.8153 49.60046 450.8153 39.60046" fill="#7c7b86"/>
  <path d="M406.3153,132.10046s-15,26.50394,0,30.25197c6.67289,1.66735,13.74158,2.79086,19.53335,3.52443,6.93438,.87829,13.31753-3.88171,14.46665-10.77638h0l16,54.99999,16-4,3-28.62992,19.44094,19.44094-2.44094,78.18898,18-1,19-85s1-6-14-14-42-34-42-34l-46-14-21,5Z" style="fill: rgb(34, 34, 41);"/>
  <path d="M437.8153,149.60046l-26-17,32-34s18-7,23,20,8,51,8,51l-37-20Z" style="fill: rgb(34, 34, 41);"/>
  <g>
    <path d="M384.17028,98.84862l1.13947-7.74817c.83038-5.64667-2.91504-10.57465-7.99445-11.78772v-3.21228c0-2.76141-2.23859-5-5-5s-5,2.23859-5,5v4.28491l-19,4.03027v-5.31519c0-2.76141-2.23859-5-5-5s-5,2.23859-5,5v5.05157l-1.88892-.49274c-5.64087-1.47156-10.09705,5.00049-6.58862,9.65619,.04535,.06018,.09143,.12042,.13831,.18066,4.68341,6.02155,6.02155,11.37408,6.02155,11.37408l-3.34534,18.06476,3.81024,37.55756c.49103,4.84064,4.65723,8.46777,9.51941,8.28766l36.99292-1.37012c4.85834-.17993,8.74774-4.09729,8.88007-8.95715,.47125-17.31067,.52545-54.98615-7.68463-59.60431Z" style="fill: rgb(34, 34, 41);"/>
    <path d="M351.05065,163.7445c-.51855,0-.95703-.3999-.99609-.92529l-2.00732-26.7627c-.0415-.55078,.37158-1.03076,.92236-1.07178,.5459-.04297,1.03076,.37158,1.07178,.92236l2.00732,26.7627c.0415,.55078-.37158,1.03076-.92236,1.07178-.02539,.00195-.05078,.00293-.07568,.00293Z" fill="#ffb6b6"/>
    <path d="M335.99596,105.87047c-.48779,0-.91504-.35791-.98779-.85498-.08008-.54639,.29785-1.0542,.84424-1.13428l48.3291-7.08301c.54639-.0791,1.0542,.29785,1.13428,.84424s-.29785,1.0542-.84424,1.13428l-48.3291,7.08301c-.04932,.00732-.09814,.01074-.14648,.01074Z" fill="#ffb6b6"/>
  </g>
  <g>
    <g>
      <path d="M611.3077,281.68874l.45897-35.73419-13.71699-3.77326,.41485,39.51279-3.15586,29.19822,.08197,.03057c-1.32299,1.33037-2.39645,3.45398-2.85349,5.96407-.834,4.58054,.69469,8.69516,3.41432,9.19033,2.71969,.49517,5.60051-2.81659,6.43445-7.39712,.34236-1.88029,.28121-3.67702-.09166-5.18213l.12212,.04556,8.89132-31.85483Z" fill="#a0616a"/>
      <path d="M586.36054,197.6896s6.22512-4.76039,10.61933,2.1971c4.39421,6.95749,16.47827,42.11114,16.47827,42.11114,0,0,3.4946,16.11209,2.66276,18.49228-.83184,2.38019-1.93039,23.32908-1.93039,23.32908l-17.16883-3.114,.4152-20.21508-16.36054-26.11448,5.2842-36.68605Z" fill="#ccc"/>
    </g>
    <g>
      <path d="M471.37616,184.71155l24.06011,26.42449,12.59906-6.60736-27.27825-28.58898-17.62742-23.48977-.08077,.03362c.05848-1.87531-.60691-4.15988-1.98657-6.30604-2.5177-3.91639-6.44374-5.87934-8.76904-4.38449-2.32534,1.49489-2.16945,5.88152,.34828,9.79787,1.0335,1.60767,2.3048,2.8788,3.60478,3.72403l-.12034,.05009,15.25014,29.34654Z" fill="#a0616a"/>
      <path d="M548.32553,229.0589s-1.29885,7.72829-9.25955,5.64431c-7.9607-2.08398-40.78975-19.52122-40.78975-19.52122,0,0-13.55314-9.38744-14.57025-11.69456-1.01711-2.30711-14.51606-18.36455-14.51606-18.36455l14.67126-9.44562,13.49731,15.05472,29.7829,7.91276,21.18412,30.41417Z" fill="#ccc"/>
    </g>
    <circle cx="552.88472" cy="158.3811" r="19.10768" fill="#a0616a"/>
    <g>
      <polygon points="586.40437 493.11544 574.54525 493.11428 568.9038 447.37145 586.40675 447.37267 586.40437 493.11544" fill="#a0616a"/>
      <path d="M545.77354,492.84642h0c-.36925,.62189-.56409,2.62907-.56409,3.35227h0c0,2.22294,1.80202,4.02503,4.02503,4.02503h36.72631c1.51648,0,2.7459-1.22935,2.7459-2.7459v-1.52903s1.81681-4.59554-1.92369-10.2598c0,0-4.64894,4.4352-11.59566-2.51151l-2.04852-3.71106-14.8285,10.84481-8.21921,1.01171c-1.7982,.22132-3.39246-.03435-4.31743,1.52348h-.00014Z" style="fill: rgb(34, 34, 41);"/>
    </g>
    <g>
      <polygon points="552.40437 493.11544 540.54525 493.11428 534.9038 447.37145 552.40675 447.37267 552.40437 493.11544" fill="#a0616a"/>
      <path d="M511.77354,492.84642h0c-.36925,.62189-.56409,2.62907-.56409,3.35227h0c0,2.22294,1.80202,4.02503,4.02503,4.02503h36.72631c1.51648,0,2.7459-1.22935,2.7459-2.7459v-1.52903s1.81681-4.59554-1.92369-10.2598c0,0-4.64894,4.4352-11.59566-2.51151l-2.04852-3.71106-14.8285,10.84481-8.21921,1.01171c-1.7982,.22132-3.39246-.03435-4.31743,1.52348h-.00014Z" style="fill: rgb(34, 34, 41);"/>
    </g>
    <polygon points="594.8153 294.60046 517.8153 298.60046 534.8153 472.60046 551.8153 471.60046 557.8153 366.60046 560.3153 329.10046 570.51215 468.7225 587.8153 468.60046 594.8153 294.60046" style="fill: rgb(34, 34, 41);"/>
    <path d="M572.00463,182.60046l-29.16292-1-19.52641,19.41732v63.61024l-7.62528,39.97244s51.28652-5,61.3427,5,28.1573,3,28.1573,3l-9.05056-52.88583-4.02247-61.11417-20.11236-16Z" fill="#ccc"/>
    <path d="M561.2965,177.10051l-16.2553-3.84017-2.50827-9.8553s-.06035-4.64563-2.25363-5.16377-6.06169-3.7477-6.06169-3.7477l3.7477-6.06169s-9.03218-.97593-6.32076-2.65107,3.10368-.92047,3.48863-4.96503c.79645-8.36865,26.40289-7.14709,28.39191-2.55542,0,0,3.28992,.7772,4.96506,3.48862,1.67514,2.71142,2.5127,4.06713,3.60934,4.3262s1.67514,2.71142,1.67514,2.71142c0,0,3.86841,3.22956,2.5127,4.06713s-2.39199,5.22412-2.39199,5.22412c0,0,3.60934,4.3262-4.46456,13.99724l-4.30148,6.92005-3.83278-1.89464Z" style="fill: rgb(34, 34, 41);"/>
    <g>
      <path d="M582.17028,205.20216l1.13947-7.74817c.83038-5.64667-2.91504-10.57465-7.99445-11.78772v-3.21228c0-2.76141-2.23859-5-5-5s-5,2.23859-5,5v4.28491l-19,4.03027v-5.31519c0-2.76141-2.23859-5-5-5s-5,2.23859-5,5v5.05157l-1.88892-.49274c-5.64087-1.47156-10.09705,5.00049-6.58862,9.65619,.04535,.06018,.09143,.12042,.13831,.18066,4.68341,6.02155,6.02155,11.37408,6.02155,11.37408l-3.34534,18.06476,3.81024,37.55756c.49103,4.84064,4.65723,8.46777,9.51941,8.28766l36.99292-1.37012c4.85834-.17993,8.74774-4.09729,8.88007-8.95715,.47125-17.31067,.52545-54.98615-7.68463-59.60431Z" style="fill: rgb(34, 34, 41);"/>
      <path d="M549.05065,270.09803c-.51855,0-.95703-.3999-.99609-.92529l-2.00732-26.7627c-.0415-.55078,.37158-1.03076,.92236-1.07178,.5459-.04297,1.03076,.37158,1.07178,.92236l2.00732,26.7627c.0415,.55078-.37158,1.03076-.92236,1.07178-.02539,.00195-.05078,.00293-.07568,.00293Z" fill="#ffb6b6"/>
      <path d="M533.99596,212.22401c-.48779,0-.91504-.35791-.98779-.85498-.08008-.54639,.29785-1.0542,.84424-1.13428l48.3291-7.08301c.54639-.0791,1.0542,.29785,1.13428,.84424s-.29785,1.0542-.84424,1.13428l-48.3291,7.08301c-.04932,.00732-.09814,.01074-.14648,.01074Z" fill="#ffb6b6"/>
    </g>
    <polygon points="536.20153 271.69909 517.3153 226.10046 522.3153 228.10046 542.42906 268.50182 536.20153 271.69909" fill="#3f3d56"/>
  </g>
  <path id="c-71" d="M447.67549,143.67057c3.24322,3.05106,7.44638,3.85078,9.38775,1.78646s.8857-6.21036-2.35908-9.26207c-1.27944-1.23681-2.83646-2.14924-4.54081-2.66094l-13.90491-12.75393-5.84596,6.65274,14.32843,11.8668c.61508,1.67044,1.62134,3.16925,2.93457,4.37094Z" fill="#ffb6b6"/>
  <path d="M435.77607,77.59235s-16.95286-21.11888-23.46077-19.4919c-8,2-6,10-14.27517,31.39613-2.07245,5.3585-4.2488,10.55186-.06638,14.49089l11.53186,10.86078,24.58396,20.7282,9.88997-10.35319-19.64796-25.33688,11.4445-22.29402Z" fill="#7c7b86"/>
</svg>